<?xml version="1.0" standalone="no"?><!DOCTYPE svg PUBLIC "-//W3C//DTD SVG 1.1//EN" "http://www.w3.org/Graphics/SVG/1.1/DTD/svg11.dtd"><svg t="1699594706103" class="icon" viewBox="0 0 1024 1024" version="1.1" xmlns="http://www.w3.org/2000/svg" p-id="1509" xmlns:xlink="http://www.w3.org/1999/xlink" width="200" height="200"><path d="M912.469346 632.517841c-22.269189-8.05035-703.264115-398.029272-703.264115-398.029272s-17.444301-72.222905 57.085136-66.215074c9.829879 7.03523 659.889235 440.687838 659.889235 440.687838S942.401052 635.955126 912.469346 632.517841L912.469346 632.517841 912.469346 632.517841zM797.684066 481.611899c9.06547-9.972119 14.098089-20.496823 14.098089-31.43085 0-43.63787-77.802994-81.224929-190.339046-99.024318l-61.790298-45.746904c171.891905 11.19804 300.600289 61.824067 300.600289 198.137663 0 7.820106-0.927115 15.393595-1.950422 22.940478L797.684066 481.611899 797.684066 481.611899 797.684066 481.611899zM830.485123 637.476783c-22.840194-6.227842-732.987067-340.192006-732.987067-340.192006s-23.179932-70.598918 51.573609-70.598918c10.380418 6.227842 693.169199 386.217249 693.169199 386.217249S860.592838 638.513392 830.485123 637.476783L830.485123 637.476783 830.485123 637.476783zM161.564187 369.053334l38.344307 18.083867c-38.252209 17.878183-60.865229 39.579437-60.865229 63.039755 0 60.771085 150.58974 110.049418 336.367911 110.049418 29.05371 0 57.069787-1.328251 83.946924-3.602038l219.031529 103.285365c-77.666894 66.206888-197.554378 105.264439-301.602106 105.264439-177.159886 0-383.457392-104.143918-383.457392-261.628696C93.3332 443.265546 118.635469 399.840524 161.564187 369.053334L161.564187 369.053334 161.564187 369.053334zM698.287265 744.544287l0 50.058093c-68.425416 34.166147-148.691507 53.631478-221.496673 53.631478-70.533426 0-145.498792-16.73515-210.401987-46.556339l0-49.850361c64.856124 29.847795 139.837862 46.568618 210.401987 46.568618C549.660226 798.399869 629.893572 778.820951 698.287265 744.544287L698.287265 744.544287 698.287265 744.544287zM698.287265 744.544287" fill="#272636" p-id="1510"></path></svg>