<?xml version="1.0" standalone="no"?>
<!DOCTYPE svg PUBLIC "-//W3C//DTD SVG 20010904//EN"
 "http://www.w3.org/TR/2001/REC-SVG-20010904/DTD/svg10.dtd">
<svg version="1.0" xmlns="http://www.w3.org/2000/svg"
 width="700.000000pt" height="700.000000pt" viewBox="0 0 700.000000 700.000000"
 preserveAspectRatio="xMidYMid meet">
<metadata>
Created by potrace 1.14, written by Peter Selinger 2001-2017
</metadata>
<g transform="translate(0.000000,700.000000) scale(0.100000,-0.100000)"
fill="#000000" stroke="none">
<path d="M1647 5839 c-145 -34 -230 -154 -228 -323 1 -53 8 -118 14 -122 1 0
164 -93 362 -206 198 -113 376 -215 395 -225 19 -11 224 -128 455 -260 231
-132 440 -251 465 -265 25 -14 167 -95 315 -180 285 -163 706 -402 765 -435
19 -11 220 -125 445 -253 347 -197 1008 -569 1180 -665 28 -15 109 -60 180
-100 210 -117 245 -133 289 -129 71 7 93 53 62 128 -12 29 -203 160 -1397 956
-761 508 -1777 1186 -2257 1507 l-873 583 -67 -1 c-37 -1 -84 -5 -105 -10z"/>
<path d="M885 5436 c-169 -42 -247 -152 -239 -340 4 -88 19 -133 47 -142 12
-4 95 -42 185 -85 90 -44 165 -79 167 -79 2 0 66 -30 142 -66 76 -36 163 -77
193 -91 30 -14 98 -46 150 -70 52 -25 160 -76 240 -113 80 -37 186 -87 235
-110 50 -23 122 -57 160 -75 39 -18 108 -51 155 -73 47 -22 110 -51 140 -65
30 -14 113 -52 183 -86 71 -34 130 -61 131 -61 2 0 64 -29 137 -64 74 -35 193
-90 264 -124 72 -33 175 -81 230 -107 144 -68 220 -103 300 -140 86 -40 184
-85 295 -137 47 -22 137 -64 200 -93 63 -29 156 -72 205 -95 50 -23 119 -56
155 -72 73 -34 419 -193 495 -228 28 -13 158 -72 290 -132 258 -118 306 -138
345 -144 38 -5 86 14 97 39 11 26 2 77 -20 109 -12 19 -242 151 -666 384 -52
28 -890 495 -991 552 -114 63 -482 268 -540 300 -36 19 -82 46 -102 59 -21 13
-40 23 -42 23 -2 0 -35 17 -73 39 -37 21 -95 53 -128 71 -33 18 -109 61 -170
95 -60 35 -135 76 -165 93 -30 16 -149 82 -265 147 -115 64 -234 130 -263 146
-74 41 -640 357 -872 487 -63 35 -140 78 -170 94 -30 17 -90 50 -133 75 -42
24 -97 55 -122 68 -49 28 -99 31 -180 11z"/>
<path d="M3859 4890 c14 -12 107 -82 207 -156 l182 -134 83 -15 c222 -39 370
-75 559 -137 106 -34 116 -38 252 -101 248 -115 390 -256 405 -401 6 -62 -14
-128 -59 -193 l-31 -46 24 -19 c13 -10 94 -70 179 -134 85 -63 163 -121 173
-129 41 -35 48 -8 42 180 -7 254 -68 439 -206 625 -67 92 -196 212 -294 275
-54 35 -61 40 -136 80 -207 111 -584 230 -829 261 -19 3 -46 7 -60 9 -33 7
-74 13 -135 20 -27 3 -63 8 -80 10 -37 5 -127 13 -225 20 l-75 6 24 -21z"/>
<path d="M1055 4438 c-240 -190 -382 -451 -411 -748 -38 -404 105 -767 431
-1096 212 -214 495 -402 805 -533 41 -18 84 -36 95 -41 72 -34 396 -136 485
-154 14 -3 79 -16 145 -30 66 -13 144 -27 174 -31 30 -4 63 -8 74 -11 101 -19
534 -26 697 -11 455 43 971 202 1355 420 80 45 252 153 265 167 3 3 35 28 72
55 37 28 68 55 68 60 0 6 -21 20 -47 32 -27 13 -111 52 -188 89 -77 36 -160
75 -185 86 -25 11 -101 47 -170 80 -69 33 -150 71 -180 85 -30 14 -124 59
-209 99 -84 41 -155 74 -156 74 -2 0 -63 29 -136 63 -74 35 -150 72 -170 81
-44 21 -43 21 -199 10 -236 -16 -847 -9 -1010 11 -19 3 -64 7 -100 10 -82 7
-403 53 -450 65 -19 5 -53 11 -74 15 -124 18 -408 100 -564 162 -256 102 -429
228 -492 357 -34 72 -34 162 1 236 46 96 171 205 323 282 l61 31 -80 38 c-44
21 -103 49 -130 63 l-51 24 -49 -40z"/>
<path d="M4710 1879 c-167 -80 -427 -174 -600 -218 -47 -12 -101 -26 -120 -31
-57 -15 -233 -49 -286 -55 -27 -3 -65 -7 -84 -10 -204 -26 -508 -26 -740 0
-91 10 -228 32 -290 46 -25 6 -52 12 -60 14 -123 26 -398 106 -465 134 -11 5
-56 23 -100 41 -44 18 -95 39 -113 46 l-32 14 0 -170 0 -170 43 -19 c224 -102
619 -220 857 -255 296 -45 702 -54 910 -22 14 2 46 7 71 10 60 9 100 16 119
21 8 3 34 7 56 10 58 7 301 70 414 107 153 50 443 168 479 195 3 2 5 80 5 173
1 94 1 170 1 170 0 0 -29 -14 -65 -31z"/>
</g>
</svg>
